<?xml version="1.0" standalone="no"?>
<!DOCTYPE svg PUBLIC "-//W3C//DTD SVG 20010904//EN"
 "http://www.w3.org/TR/2001/REC-SVG-20010904/DTD/svg10.dtd">
<svg version="1.0" xmlns="http://www.w3.org/2000/svg"
 width="3692.000000pt" height="3692.000000pt" viewBox="0 0 3692.000000 3692.000000"
 preserveAspectRatio="xMidYMid meet">
<metadata>
Created by potrace 1.14, written by Peter Selinger 2001-2017
</metadata>
<g transform="translate(0.000000,3692.000000) scale(0.100000,-0.100000)"
fill="#000000" stroke="none">
<path d="M27707 29384 c-1 -1 -81 -4 -177 -8 -96 -3 -184 -8 -195 -10 -12 -2
-51 -7 -87 -10 -37 -4 -75 -8 -85 -10 -10 -2 -40 -7 -68 -10 -27 -4 -95 -16
-150 -27 -55 -11 -111 -22 -125 -25 -51 -10 -310 -85 -460 -135 -648 -213
-1204 -558 -1654 -1028 -45 -47 -91 -95 -104 -108 -18 -20 -86 -102 -217 -264
-11 -14 -75 -105 -126 -179 -35 -51 -139 -221 -139 -227 0 -2 -16 -29 -35 -59
-19 -30 -35 -57 -35 -59 0 -3 -11 -22 -24 -43 -13 -20 -70 -118 -127 -217
-149 -260 -228 -398 -239 -415 -6 -8 -13 -22 -17 -30 -3 -8 -14 -26 -23 -40
-9 -14 -31 -50 -47 -80 -17 -30 -88 -154 -158 -275 -70 -121 -137 -236 -147
-255 -11 -19 -41 -71 -67 -115 -26 -44 -50 -87 -54 -95 -4 -8 -17 -30 -28 -49
-11 -19 -79 -136 -150 -260 -71 -124 -134 -233 -139 -241 -16 -27 -62 -104
-88 -150 -40 -70 -271 -473 -282 -490 -5 -8 -41 -71 -81 -140 -40 -69 -152
-262 -249 -430 -97 -168 -230 -397 -294 -510 -65 -113 -142 -245 -171 -295
-97 -166 -428 -740 -449 -778 -12 -21 -25 -46 -31 -55 -5 -9 -26 -44 -45 -77
-19 -33 -42 -72 -50 -86 -8 -14 -37 -65 -65 -113 -27 -48 -54 -95 -60 -104 -9
-16 -114 -198 -163 -282 -11 -19 -77 -134 -147 -255 -70 -121 -139 -240 -153
-265 -14 -25 -42 -72 -61 -105 -20 -33 -42 -71 -49 -85 -25 -51 -78 -140 -90
-152 -7 -7 -12 -15 -12 -20 0 -4 -14 -31 -31 -60 -38 -64 -254 -439 -282 -488
-10 -19 -34 -60 -52 -90 -18 -30 -76 -129 -128 -220 -52 -91 -144 -250 -205
-355 -60 -104 -122 -212 -137 -240 -15 -27 -36 -61 -45 -75 -9 -14 -24 -38
-32 -55 -9 -16 -70 -124 -137 -239 -66 -115 -121 -211 -121 -214 0 -3 -6 -13
-14 -21 -7 -9 -27 -41 -43 -71 -17 -30 -62 -109 -100 -175 -38 -66 -139 -241
-225 -390 -160 -278 -328 -567 -358 -620 -10 -16 -61 -106 -115 -199 -53 -93
-105 -182 -114 -197 -9 -15 -54 -94 -100 -176 -47 -81 -101 -175 -121 -208
-20 -33 -48 -80 -62 -105 -14 -25 -60 -106 -103 -180 -116 -200 -214 -370
-239 -415 -13 -22 -47 -80 -76 -130 -49 -83 -88 -151 -115 -200 -12 -22 -70
-121 -85 -145 -8 -12 -299 -518 -360 -625 -9 -16 -43 -75 -75 -130 -32 -55
-101 -174 -153 -265 -52 -91 -120 -208 -150 -260 -30 -52 -97 -168 -148 -257
-52 -89 -103 -177 -114 -195 -11 -18 -23 -40 -27 -48 -4 -8 -26 -48 -50 -88
-24 -40 -43 -77 -43 -81 0 -5 -3 -11 -7 -13 -5 -2 -74 -118 -154 -258 -81
-140 -179 -311 -219 -380 -40 -69 -132 -228 -205 -355 -73 -126 -166 -286
-205 -355 -86 -148 -296 -512 -320 -555 -24 -41 -148 -257 -159 -275 -276
-462 -362 -653 -435 -970 -13 -58 -27 -125 -30 -150 -3 -25 -9 -74 -13 -110
-15 -123 -8 -476 11 -570 1 -8 6 -37 10 -65 4 -27 21 -102 36 -165 145 -583
515 -1092 1022 -1408 73 -45 317 -172 331 -172 5 0 23 -6 40 -14 38 -17 198
-74 230 -81 241 -54 278 -61 422 -75 86 -8 420 -6 451 3 11 3 46 8 79 12 47 5
186 32 250 49 106 28 276 85 289 97 6 5 16 9 23 9 21 0 261 123 344 176 352
225 619 513 824 889 15 28 31 55 35 60 4 6 19 30 32 55 27 48 56 99 87 153 90
155 317 549 333 577 20 37 25 45 76 127 17 30 32 56 32 58 0 3 11 22 23 43 13
20 35 57 49 82 24 43 125 217 340 590 53 91 105 181 116 200 11 19 69 121 130
225 225 390 331 574 411 715 46 80 96 165 111 190 15 25 39 66 54 93 14 26 66
116 114 200 49 83 175 301 280 482 104 182 198 344 209 362 10 18 45 78 77
135 80 140 227 393 291 503 29 50 62 106 73 126 11 20 95 166 187 325 93 159
181 314 198 344 16 30 33 60 38 65 4 6 58 98 119 205 62 107 120 209 130 225
178 308 382 661 438 760 25 44 91 159 147 255 57 96 114 195 128 220 14 25
107 187 207 360 101 173 194 335 208 360 36 64 341 592 352 610 5 8 22 38 38
65 33 58 350 607 427 740 29 50 78 135 110 190 31 55 63 109 70 120 7 11 14
25 15 30 6 18 73 120 86 130 7 6 84 134 172 285 88 151 168 289 178 307 97
165 167 287 177 306 7 12 25 41 40 64 15 24 27 45 27 47 0 2 26 49 58 103 96
160 204 346 222 378 9 17 23 41 32 55 9 14 26 44 39 67 35 60 148 255 159 273
5 8 24 40 41 70 61 105 102 175 119 205 9 17 71 123 137 235 66 113 171 293
233 400 62 107 157 269 210 360 186 318 253 434 267 459 8 14 23 40 33 56 11
17 23 37 27 45 4 8 32 58 63 110 31 52 68 116 83 142 l28 48 -1613 2 -1613 3
1 135 c1 144 9 247 24 345 15 92 14 86 60 266 17 64 77 213 125 310 99 196
227 371 386 526 92 90 205 185 244 205 11 6 22 14 25 18 13 17 168 105 270
153 145 69 335 133 455 153 107 18 159 25 225 30 41 3 658 7 1370 7 l1294 2
83 140 c46 77 89 150 96 162 12 22 98 171 134 233 11 19 35 60 53 90 18 30 41
70 51 87 10 18 73 126 140 240 67 115 135 233 152 263 17 30 38 66 47 80 9 14
28 45 42 70 106 191 223 380 268 434 138 166 191 220 305 316 275 230 615 384
962 436 21 3 49 8 63 11 14 4 369 8 789 10 l763 4 -20 -33 c-36 -58 -125 -212
-136 -235 -6 -13 -14 -23 -18 -23 -5 0 -8 -4 -8 -9 0 -6 -46 -88 -101 -183
-56 -95 -113 -193 -127 -218 -14 -25 -42 -74 -64 -109 -21 -34 -38 -65 -38
-67 0 -3 -11 -21 -23 -42 -22 -33 -139 -234 -189 -322 -11 -19 -24 -39 -28
-45 -4 -5 -18 -30 -32 -55 -14 -25 -174 -301 -356 -614 -183 -312 -332 -572
-332 -576 0 -4 -7 -13 -15 -20 -8 -7 -15 -16 -15 -20 0 -5 723 -8 1606 -8
1232 0 1608 -2 1614 -11 8 -15 5 -289 -5 -381 -17 -160 -79 -408 -132 -530
-50 -114 -113 -236 -161 -310 -231 -360 -558 -630 -948 -784 -91 -36 -277 -90
-349 -101 -22 -4 -51 -9 -65 -11 -109 -19 -322 -22 -1490 -23 -1036 -1 -1326
-4 -1332 -14 -11 -16 -243 -413 -330 -562 -38 -66 -73 -127 -79 -135 -11 -18
-193 -331 -221 -380 -28 -50 -561 -964 -746 -1280 -85 -146 -168 -290 -185
-320 -16 -30 -36 -62 -43 -71 -8 -8 -14 -18 -14 -21 0 -5 -83 -151 -130 -228
-8 -14 -324 -556 -504 -864 l-86 -148 707 5 c390 3 733 8 763 10 30 3 103 8
162 11 59 4 115 9 125 10 10 2 56 7 102 11 47 4 92 8 100 10 9 1 47 6 84 10
37 3 76 8 85 10 10 2 45 6 77 10 33 4 67 9 75 10 19 3 95 15 135 21 358 53
908 184 1300 311 210 68 645 228 714 263 9 4 61 27 116 51 176 74 502 231 645
310 30 16 96 52 145 79 50 28 113 63 140 80 28 16 64 37 80 46 84 47 426 268
540 349 24 17 56 39 71 50 40 27 247 179 270 198 11 9 48 38 84 66 147 115
301 246 440 371 52 47 110 99 129 115 51 46 368 363 440 441 35 38 85 92 110
119 26 28 87 97 136 155 50 58 92 107 95 110 3 3 23 28 45 55 21 28 42 52 45
55 13 11 269 346 310 406 8 12 30 44 49 71 179 253 298 443 534 853 97 169
313 622 422 885 106 256 285 763 310 879 3 10 9 33 15 51 6 18 13 41 15 51 3
10 18 69 35 129 26 95 99 400 114 475 22 112 56 292 60 325 4 23 8 52 11 65 3
13 7 42 10 65 4 22 8 51 10 65 2 14 6 45 10 70 3 25 8 56 10 70 2 14 7 50 10
80 4 30 8 66 10 80 2 14 6 57 10 95 3 39 8 86 10 105 8 66 24 317 30 455 5
109 5 482 0 525 -7 63 -17 124 -31 190 -37 168 -55 220 -133 380 -134 275
-314 481 -570 653 -141 95 -402 210 -523 231 -15 3 -31 7 -35 9 -5 3 -28 8
-53 11 -25 3 -56 8 -69 11 -13 2 -62 7 -109 11 -66 5 -7668 13 -7675 8z"/>
<path d="M1608 27765 c-2 -1 -46 -5 -99 -9 -262 -18 -606 -79 -824 -146 -137
-42 -318 -108 -357 -129 -237 -131 -363 -401 -313 -669 6 -33 82 -257 105
-307 5 -11 108 -292 230 -625 122 -333 244 -666 272 -740 27 -74 81 -220 119
-325 75 -202 121 -327 134 -360 4 -11 9 -24 10 -30 2 -5 39 -107 83 -225 44
-118 115 -309 157 -425 42 -115 115 -313 162 -440 47 -126 118 -320 158 -430
40 -110 102 -279 138 -375 36 -96 115 -312 177 -480 62 -168 141 -384 177
-480 36 -96 82 -222 103 -280 21 -58 148 -404 283 -770 135 -366 302 -820 372
-1010 69 -190 141 -385 160 -435 18 -49 144 -391 279 -760 136 -368 251 -681
257 -695 6 -14 15 -36 19 -50 13 -39 179 -493 189 -515 6 -11 13 -31 16 -45 4
-14 13 -38 20 -55 7 -16 66 -174 130 -350 240 -656 267 -730 276 -750 5 -11
31 -81 58 -155 27 -74 64 -178 84 -230 19 -52 79 -214 132 -360 53 -146 100
-274 105 -285 5 -11 49 -130 98 -265 50 -135 139 -375 197 -535 59 -159 118
-320 131 -357 13 -37 34 -96 48 -130 21 -55 102 -273 211 -573 18 -49 45 -121
60 -160 14 -38 28 -77 30 -85 4 -14 191 -524 234 -635 10 -27 28 -75 39 -105
11 -30 23 -64 28 -75 4 -11 8 -24 10 -30 1 -5 59 -163 129 -350 69 -187 139
-376 155 -420 16 -44 74 -204 130 -355 56 -151 107 -291 114 -310 7 -19 43
-116 80 -215 37 -99 74 -200 82 -225 8 -25 19 -54 24 -65 5 -11 43 -114 85
-230 42 -115 103 -277 136 -360 33 -82 80 -202 105 -265 54 -142 48 -129 122
-280 232 -475 633 -858 1127 -1079 106 -47 327 -123 390 -135 17 -3 59 -12 95
-19 141 -31 256 -42 455 -42 155 0 260 6 340 20 41 7 95 16 125 21 14 3 33 7
42 10 9 3 25 6 35 8 39 8 238 68 268 80 16 8 46 19 65 26 71 26 288 138 373
194 329 212 565 461 776 818 28 48 51 91 51 97 0 5 3 11 8 13 4 2 32 46 61 98
80 140 85 150 118 206 17 27 41 70 55 95 37 65 217 377 239 413 10 17 42 74
72 126 30 52 95 165 145 250 49 85 164 284 255 441 90 158 181 314 201 348 20
34 36 65 36 70 0 4 5 12 12 19 6 6 28 40 47 76 20 35 83 145 141 245 114 196
161 279 205 356 15 28 31 55 35 60 6 8 159 273 223 385 31 56 203 352 226 390
11 19 24 42 28 50 4 8 59 105 123 215 64 110 128 220 142 245 36 63 117 202
128 220 5 8 19 32 30 53 11 20 127 220 256 445 130 224 248 427 262 452 44 77
82 144 104 180 19 32 182 313 235 405 12 22 26 47 30 55 4 8 31 55 60 104 29
49 53 90 53 91 0 1 30 54 66 116 98 167 236 406 321 554 40 72 78 137 83 145
13 21 103 176 130 225 20 35 76 134 303 525 33 58 82 141 108 185 26 44 57 98
69 120 30 54 508 882 532 920 10 17 21 37 25 45 4 8 33 58 64 112 31 53 70
120 87 150 16 29 61 107 99 173 71 121 278 480 315 545 26 45 310 537 356 615
33 57 73 127 96 170 6 11 16 27 22 35 6 8 23 36 38 63 43 78 71 127 126 222
29 50 64 110 78 135 14 25 42 72 61 105 20 33 42 71 49 85 7 14 18 34 25 45 7
11 77 133 156 270 80 138 179 309 221 380 92 157 114 204 134 281 67 259 -37
530 -260 679 -80 54 -325 178 -479 243 -186 79 -334 129 -585 197 -101 28
-395 79 -570 100 -223 26 -643 21 -872 -10 -21 -3 -57 -8 -80 -11 -147 -19
-250 -40 -488 -98 -303 -75 -704 -243 -1010 -424 -368 -218 -741 -532 -1000
-842 -25 -29 -57 -67 -71 -84 -83 -100 -289 -395 -289 -415 0 -5 -4 -11 -8
-13 -7 -3 -36 -51 -119 -198 -11 -19 -77 -133 -147 -252 -69 -120 -126 -222
-126 -228 0 -5 -4 -10 -10 -10 -5 0 -10 -4 -10 -10 0 -5 -20 -42 -44 -82 -23
-40 -104 -179 -178 -308 -75 -129 -145 -251 -157 -270 -11 -19 -24 -42 -28
-50 -4 -8 -26 -46 -48 -85 -23 -38 -53 -90 -67 -115 -14 -25 -58 -101 -98
-170 -40 -69 -81 -141 -92 -160 -11 -19 -37 -64 -58 -100 -21 -36 -47 -81 -58
-100 -11 -19 -52 -91 -92 -160 -40 -69 -86 -150 -103 -180 -16 -30 -37 -66
-47 -80 -9 -14 -41 -68 -71 -120 -29 -52 -62 -108 -72 -125 -10 -16 -20 -38
-23 -47 -4 -10 -10 -18 -15 -18 -5 0 -9 -4 -9 -9 0 -10 -120 -221 -480 -841
-40 -69 -84 -145 -98 -170 -14 -25 -45 -78 -69 -118 -24 -41 -43 -76 -43 -80
0 -3 -6 -13 -14 -21 -8 -9 -27 -40 -42 -69 -16 -29 -33 -61 -39 -70 -5 -9 -25
-44 -44 -77 -19 -33 -55 -96 -82 -140 -26 -44 -61 -105 -78 -135 -17 -30 -50
-88 -74 -129 -23 -40 -55 -97 -72 -126 -16 -28 -66 -114 -109 -189 l-80 -136
-17 47 c-39 106 -123 333 -154 418 -18 50 -131 356 -250 680 -119 325 -240
651 -267 725 -27 74 -97 263 -154 420 -58 157 -107 292 -111 300 -3 8 -7 20
-9 25 -1 6 -29 82 -62 170 -151 405 -183 491 -186 500 -2 6 -6 17 -9 25 -3 8
-33 92 -67 185 -34 94 -73 198 -86 233 -14 34 -42 111 -63 170 -40 112 -104
286 -214 582 -36 96 -84 227 -107 290 -67 184 -180 492 -195 530 -17 45 -42
112 -105 285 -28 77 -82 223 -120 325 -122 331 -292 794 -312 850 -10 30 -23
64 -28 75 -5 11 -27 72 -50 135 -23 63 -56 156 -75 205 -54 145 -336 911 -385
1045 -143 391 -323 879 -330 895 -5 11 -63 171 -130 355 -67 184 -126 344
-130 355 -5 11 -32 79 -59 150 -128 329 -353 721 -576 1000 -142 178 -395 442
-522 545 -10 8 -43 36 -73 61 -258 216 -610 432 -935 574 -206 91 -531 201
-675 230 -8 2 -44 10 -80 18 -36 8 -81 18 -100 21 -19 3 -47 8 -62 11 -70 13
-86 15 -123 20 -22 3 -56 7 -75 10 -19 2 -60 7 -90 10 -30 3 -75 8 -100 11
-42 6 -497 14 -502 9z"/>
</g>
</svg>
